<svg width="34" height="14" viewBox="0 0 34 14" fill="none" xmlns="http://www.w3.org/2000/svg">
<path d="M8.3125 0H11.1143V8.7207C11.1143 11.6616 8.87842 13.6284 5.54785 13.6191C2.20801 13.6284 0 11.6616 0 8.7207V0H2.7832V8.49805C2.79248 10.0474 3.88721 11.1606 5.54785 11.1699C7.22705 11.1606 8.32178 10.0474 8.3125 8.49805V0Z" fill="#FF4655"/>
<path d="M13.3779 13.4336V0H18.6475C21.6997 0 23.4531 1.71631 23.4531 4.37891C23.4531 6.21582 22.6089 7.55176 21.0781 8.21045L23.9355 13.4336H20.8555L18.2856 8.66504H16.1611V13.4336H13.3779ZM16.1611 6.40137H18.1279C19.7793 6.40137 20.5864 5.72412 20.5771 4.37891C20.5864 3.02441 19.7793 2.2915 18.1279 2.28223H16.1611V6.40137Z" fill="#FF4655"/>
<path d="M25.3828 13.4336V0H28.166V11.1328H33.9551V13.4336H25.3828Z" fill="#FF4655"/>
</svg>
