<svg width="16" height="16" viewBox="0 0 16 16" fill="none" xmlns="http://www.w3.org/2000/svg">
<path fill-rule="evenodd" clip-rule="evenodd" d="M8 16C12.4183 16 16 12.4183 16 8C16 3.58172 12.4183 0 8 0C3.58172 0 0 3.58172 0 8C0 12.4183 3.58172 16 8 16ZM7.1 8.982C7.1 8.24 7.184 7.946 7.688 7.372L7.954 7.078C8.192 6.812 8.29 6.63 8.29 6.322V5.23C8.29 4.992 8.178 4.88 7.94 4.88H7.814C7.576 4.88 7.464 4.992 7.464 5.23V6.798H5.7V5.02C5.7 3.802 6.302 3.2 7.52 3.2H8.402C9.62 3.2 10.222 3.802 10.222 5.02V6.322C10.222 7.022 10.04 7.498 9.438 8.17L8.794 8.898C8.57 9.164 8.5 9.346 8.5 9.738V10.424H7.1V8.982ZM6.918 10.928H8.682V13.084H6.918V10.928Z" fill="#AFABA4"/>
</svg>
