<svg width="19" height="19" viewBox="0 0 19 19" fill="none" xmlns="http://www.w3.org/2000/svg">
<path d="M18 1.67507V6.32692C18 6.50543 17.9291 6.67663 17.8028 6.80286C17.6766 6.92909 17.5054 7 17.3269 7H12.6747C12.0748 7 11.7744 6.27517 12.1985 5.85113L16.8511 1.19886C17.2751 0.773975 18 1.07518 18 1.67507Z" fill="#ECE8E1"/>
<path d="M16.4051 5.84031C15.5435 4.33733 14.1777 3.16923 12.5371 2.53218C10.8966 1.89513 9.08118 1.82793 7.39582 2.34186C5.71046 2.85579 4.25777 3.91955 3.28173 5.3545C2.30569 6.78945 1.86573 8.50819 2.03574 10.2221C2.20576 11.936 2.97539 13.5406 4.21538 14.7666C5.45538 15.9925 7.09022 16.765 8.84536 16.9545C10.6005 17.1439 12.369 16.7387 13.8539 15.8068C15.3389 14.875 16.4497 13.4733 17 11.8371" stroke="#ECE8E1" stroke-width="2"/>
</svg>
