<svg width="160" height="140" viewBox="0 0 160 140" fill="none" xmlns="http://www.w3.org/2000/svg">
<path d="M65.6495 7.79642C32.258 15.1718 11.7541 48.8108 19.855 82.9279C27.9558 117.045 61.5949 138.725 94.9865 131.35C128.378 123.974 148.882 90.3354 140.781 56.2183C132.68 22.1012 99.0411 0.421039 65.6495 7.79642ZM89.5479 108.445C68.5683 113.079 47.3693 99.4101 42.2814 77.9819C37.1934 56.5536 50.1172 35.3407 71.0898 30.7083C92.0624 26.076 113.275 39.7416 118.365 61.1769C123.455 82.6122 110.527 103.811 89.5479 108.445Z" fill="#4F4F4F"/>
<path d="M36.2191 45.7309C36.7388 45.6161 37.058 45.0925 36.9319 44.5614C36.8058 44.0304 36.2822 43.6929 35.7624 43.8077C35.2426 43.9225 34.9235 44.4461 35.0496 44.9772C35.1757 45.5082 35.6993 45.8457 36.2191 45.7309Z" fill="#ECE8E1"/>
<path d="M109.376 28.8413C109.896 28.7265 110.215 28.2029 110.089 27.6718C109.963 27.1408 109.439 26.8033 108.92 26.9181C108.4 27.0329 108.081 27.5565 108.207 28.0876C108.333 28.6186 108.857 28.9561 109.376 28.8413Z" fill="#ECE8E1"/>
<path d="M46.4564 107.415C46.9761 107.3 47.2953 106.776 47.1692 106.245C47.0431 105.714 46.5195 105.377 45.9997 105.492C45.48 105.607 45.1608 106.13 45.2869 106.661C45.413 107.192 45.9366 107.53 46.4564 107.415Z" fill="#ECE8E1"/>
<path d="M127.215 88.7704C127.735 88.6556 128.054 88.132 127.928 87.6009C127.802 87.0699 127.278 86.7324 126.759 86.8472C126.239 86.962 125.92 87.4856 126.046 88.0167C126.172 88.5477 126.695 88.8852 127.215 88.7704Z" fill="#ECE8E1"/>
<path fill-rule="evenodd" clip-rule="evenodd" d="M71.6733 33.1617C52.0251 37.5015 39.9151 57.3695 44.6818 77.4445C49.4485 97.5195 69.3164 110.324 88.9646 105.985C108.613 101.645 120.724 81.7837 115.956 61.7018C111.188 41.6198 91.3215 28.8219 71.6733 33.1617ZM43.8809 77.6214C39.007 57.0945 51.3886 36.781 71.479 32.3435C91.5694 27.906 111.881 40.9909 116.757 61.5249C121.633 82.0588 109.249 102.365 89.1589 106.803C69.0684 111.24 48.7549 98.1483 43.8809 77.6214Z" fill="#373334"/>
<path d="M50.2467 38.3229L43.3276 32.2902L49.4956 39.0106L47.9082 40.4639L38.583 30.3035L41.446 27.6824L47.6613 33.3176L42.6223 26.6054L45.4995 23.9713L54.8246 34.1317L52.8687 35.9223L46.7674 29.2745L52.1176 36.6101L50.2467 38.3229Z" fill="#ECE8E1"/>
<path d="M51.9662 19.9074L59.0891 31.6186L56.7997 32.9959L49.6768 21.2847L51.9662 19.9074Z" fill="#ECE8E1"/>
<path d="M63.3477 21.8921C64.3438 22.1535 64.7757 22.5535 65.1612 23.5001L66.1176 25.8485C66.7626 27.4322 66.3152 28.5179 64.7648 29.1308L63.3748 29.6802C61.8244 30.293 60.7393 29.8131 60.0943 28.2294L58.9896 25.5169L61.431 24.5519L62.4393 27.0277C62.5654 27.3371 62.7672 27.4264 63.0702 27.3067L63.3018 27.2151C63.6048 27.0954 63.688 26.8934 63.562 26.5839L62.9392 25.0547C62.7761 24.6542 62.5698 24.5033 62.1779 24.4046L59.3796 23.6297C58.3835 23.3683 57.9368 22.9319 57.5661 22.0217L56.7431 20.001C56.0981 18.4172 56.5456 17.3316 58.096 16.7187L59.4503 16.1834C61.0007 15.5705 62.0858 16.0504 62.7308 17.6342L63.6798 19.9644L61.2384 20.9294L60.3858 18.8359C60.2597 18.5264 60.0579 18.4371 59.7549 18.5569L59.5589 18.6344C59.2559 18.7541 59.1727 18.9561 59.2987 19.2656L59.7881 20.4671C59.9512 20.8676 60.1575 21.0185 60.5494 21.1172L63.3477 21.8921Z" fill="#ECE8E1"/>
<path d="M72.9688 19.5867C73.8931 20.0462 74.2368 20.5255 74.4266 21.5296L74.8975 24.0206C75.2151 25.7005 74.5609 26.6699 72.9198 26.9514L71.4485 27.2037C69.8075 27.4852 68.8394 26.794 68.5218 25.114L67.978 22.2368L70.5622 21.7936L71.0586 24.4198C71.1207 24.748 71.3008 24.8766 71.6214 24.8216L71.8666 24.7796C72.1873 24.7246 72.309 24.5442 72.247 24.216L71.9404 22.5939C71.8601 22.1691 71.6879 21.9794 71.3234 21.8026L68.735 20.4723C67.8107 20.0128 67.4596 19.4948 67.2771 18.5293L66.872 16.3859C66.5544 14.706 67.2086 13.7366 68.8496 13.4551L70.2832 13.2092C71.9243 12.9278 72.8924 13.619 73.2099 15.299L73.6771 17.7706L71.0929 18.2138L70.6732 15.9932C70.6111 15.6649 70.431 15.5363 70.1103 15.5913L69.9028 15.6269C69.5822 15.6819 69.4605 15.8623 69.5225 16.1905L69.7634 17.465C69.8437 17.8898 70.0159 18.0796 70.3804 18.2563L72.9688 19.5867Z" fill="#ECE8E1"/>
<path d="M79.7632 12.5736L80.1522 26.2637L77.5423 26.2759L77.1533 12.5859L79.7632 12.5736Z" fill="#ECE8E1"/>
<path d="M89.5683 24.8032C89.3401 26.4729 88.3796 27.1673 86.6644 26.9028L84.8901 26.6292C83.1749 26.3646 82.4399 25.4087 82.6681 23.739L83.8534 15.0646C84.0816 13.395 85.0421 12.7005 86.7573 12.965L88.5316 13.2387C90.2468 13.5032 90.9818 14.4592 90.7536 16.1288L89.5683 24.8032ZM87.9542 15.991C87.9988 15.6647 87.8621 15.4869 87.5269 15.4352L87.1326 15.3744C86.7974 15.3227 86.6187 15.4519 86.5742 15.7781L85.4675 23.8768C85.4229 24.2031 85.5597 24.3809 85.8948 24.4326L86.2891 24.4934C86.6243 24.5451 86.803 24.4159 86.8475 24.0897L87.9542 15.991Z" fill="#ECE8E1"/>
<path d="M97.4482 30.0263L94.9193 29.0741L95.7924 21.5252L94.6485 24.7749L93.3387 28.479L91.0887 27.6318L95.7334 14.9073L98.3925 15.9085L97.5963 22.7834L98.8994 19.0974L99.8429 16.4546L102.093 17.3018L97.4482 30.0263Z" fill="#ECE8E1"/>
<path d="M59.6986 115.686L62.0048 116.928L60.402 119.952C59.6483 121.375 58.5572 121.691 57.1033 120.908L55.6661 120.134C54.2123 119.351 53.8662 118.261 54.6199 116.839L58.5359 109.449C59.2896 108.027 60.3807 107.711 61.8346 108.494L63.2383 109.25C64.6922 110.033 65.0382 111.123 64.2845 112.545L62.8637 115.226L60.5575 113.984L61.8484 111.548C61.9957 111.27 61.9313 111.068 61.6472 110.915L61.3798 110.771C61.0957 110.618 60.8927 110.676 60.7455 110.954L57.0895 117.853C56.9422 118.131 57.0066 118.334 57.2906 118.487L57.5914 118.649C57.8755 118.802 58.0785 118.743 58.2258 118.465L59.6986 115.686Z" fill="#ECE8E1"/>
<path d="M69.7952 123.171C69.3323 124.713 68.3231 125.231 66.7442 124.737L65.1109 124.226C63.532 123.732 62.9804 122.725 63.4433 121.183L65.8483 113.169C66.3112 111.627 67.3204 111.109 68.8993 111.603L70.5326 112.114C72.1115 112.608 72.6631 113.615 72.2002 115.157L69.7952 123.171ZM69.5796 114.628C69.6701 114.327 69.5675 114.139 69.259 114.043L68.896 113.929C68.5875 113.833 68.3997 113.929 68.3093 114.23L66.0639 121.712C65.9734 122.013 66.076 122.201 66.3846 122.297L66.7475 122.411C67.056 122.507 67.2438 122.411 67.3342 122.11L69.5796 114.628Z" fill="#ECE8E1"/>
<path d="M76.1864 126.455L75.7444 117.824L75.1834 126.368L73.0639 126.184L73.9121 113.267L77.7347 113.599L77.9779 121.489L79.3054 113.735L83.1469 114.069L82.2987 126.986L79.6873 126.76L80.2422 118.308L78.6843 126.672L76.1864 126.455Z" fill="#ECE8E1"/>
<path d="M88.2491 121.852L88.9095 126.371L86.3682 126.694L84.4658 113.677L88.187 113.204C89.7662 113.003 90.6636 113.703 90.9 115.321L91.4354 118.985C91.6719 120.603 91.0082 121.502 89.429 121.702L88.2491 121.852ZM88.3995 115.923C88.3533 115.607 88.1864 115.477 87.8778 115.516L87.3332 115.585L87.923 119.621L88.4675 119.552C88.7761 119.512 88.8996 119.345 88.8534 119.029L88.3995 115.923Z" fill="#ECE8E1"/>
<path d="M91.9756 112.462L94.4233 111.721L97.6749 122.01L99.4408 121.475L100.148 123.712L95.9341 124.988L91.9756 112.462Z" fill="#ECE8E1"/>
<path d="M97.5527 110.613L101.843 108.554L102.875 110.661L100.895 111.612L102.192 114.259L104.09 113.348L105.122 115.456L103.225 116.367L104.613 119.199L106.625 118.233L107.658 120.341L103.335 122.416L97.5527 110.613Z" fill="#ECE8E1"/>
<path d="M113.997 116.236L111.897 117.712L105.647 108.896L104.372 109.792L103.014 107.876L107.663 104.609L109.022 106.525L107.747 107.421L113.997 116.236Z" fill="#ECE8E1"/>
<path d="M108.71 103.678L112.112 100.346L113.755 102.021L112.185 103.559L114.249 105.664L115.754 104.19L117.397 105.866L115.893 107.34L118.102 109.592L119.698 108.028L121.341 109.704L117.913 113.062L108.71 103.678Z" fill="#ECE8E1"/>
<path d="M123.858 106.882L113.184 99.1812L115.287 96.244C116.365 94.7381 117.635 94.5466 119.175 95.6577L125.275 100.058C126.815 101.169 127.04 102.439 125.961 103.945L123.858 106.882ZM116.508 98.414L123.523 103.474L123.822 103.057C124.11 102.654 124.055 102.343 123.643 102.046L117.818 97.8441C117.406 97.547 117.095 97.5939 116.807 97.9965L116.508 98.414Z" fill="#ECE8E1"/>
<path d="M9.1714 69.3935C8.75907 67.6075 9.87266 65.8254 11.6587 65.4131L140.205 35.7357C141.991 35.3234 143.773 36.437 144.186 38.223L151.465 69.7533C151.877 71.5393 150.764 73.3215 148.978 73.7338L20.4312 103.411C18.6452 103.823 16.8631 102.71 16.4507 100.924L9.1714 69.3935Z" fill="#282828"/>
<path fill-rule="evenodd" clip-rule="evenodd" d="M11.472 64.6044L140.019 34.9271C142.251 34.4117 144.479 35.8037 144.994 38.0362L152.274 69.5665C152.789 71.799 151.397 74.0267 149.164 74.5421L20.6179 104.219C18.3853 104.735 16.1577 103.343 15.6423 101.11L8.36294 69.58C7.84752 67.3475 9.23951 65.1198 11.472 64.6044ZM11.6587 65.4129C9.87266 65.8252 8.75907 67.6074 9.17141 69.3934L16.4507 100.924C16.8631 102.71 18.6452 103.823 20.4312 103.411L148.978 73.7336C150.764 73.3213 151.877 71.5392 151.465 69.7532L144.186 38.2229C143.773 36.4368 141.991 35.3232 140.205 35.7356L11.6587 65.4129Z" fill="#ECE8E1"/>
<path d="M127.928 57.4169L128.822 61.2878L108.885 65.8906L106.855 57.1009L121.292 53.7681L121.056 52.7495L106.62 56.0823L105.727 52.2113L125.663 47.6085L127.686 56.3691L113.25 59.7019L113.492 60.7497L127.928 57.4169ZM126.979 64.9934L130.123 64.2677L131.084 68.4297L109.982 73.3012L109.022 69.1392L112.194 68.4068L111.717 66.3404L117.189 65.0771L117.666 67.1436L121.508 66.2566L121.031 64.1902L126.502 62.9269L126.979 64.9934Z" fill="#ECE8E1"/>
<path d="M102.461 58.6365L104.644 58.1325L105.652 62.4983L103.469 63.0022L104.86 69.0269L99.3886 70.2902L95.6794 54.2243L101.151 52.961L102.461 58.6365ZM98.2466 69.3276L84.1308 72.5865L83.1833 68.4827L87.52 67.4815L87.2512 66.3173C86.0571 66.3682 85.0242 66.0548 84.1525 65.3773C83.2763 64.6803 82.697 63.7206 82.4148 62.4982C82.0833 61.0624 82.2631 59.8049 82.954 58.7256C83.645 57.6464 84.7181 56.9389 86.1734 56.6029L89.2585 55.8906C90.7137 55.5547 91.9884 55.7202 93.0825 56.3873C94.1767 57.0544 94.8895 58.1058 95.221 59.5417C95.4987 60.7447 95.4137 61.8373 94.9661 62.8194C94.5139 63.7822 93.7617 64.5077 92.7095 64.9959L92.9917 66.2183L97.2992 65.2238L98.2466 69.3276ZM88.1327 60.4424C87.9193 60.4917 87.7604 60.5999 87.6559 60.7671C87.5664 60.9104 87.544 61.079 87.5888 61.2731C87.6336 61.4671 87.7396 61.6163 87.9067 61.7208C88.0739 61.8253 88.2545 61.8551 88.4486 61.8103L89.4963 61.5684C89.7098 61.5191 89.859 61.4132 89.9441 61.2505C90.0485 61.0833 90.0784 60.9027 90.0336 60.7086C89.9888 60.5146 89.885 60.3751 89.7223 60.29C89.5746 60.181 89.394 60.1512 89.1805 60.2005L88.1327 60.4424ZM90.4534 72.353L90.8431 74.0411L105.163 70.7352L106.171 75.1009L86.3793 79.6701L84.9816 73.6163L90.4534 72.353Z" fill="#ECE8E1"/>
<path d="M60.085 68.0827L74.4337 64.7701L75.3744 68.8448L55.5831 73.414L53.4464 64.1586L73.2377 59.5894L74.1784 63.6641L59.8297 66.9768L60.085 68.0827ZM76.2052 69.7873L77.1459 73.8619L56.1904 78.6999L55.2496 74.6252L76.2052 69.7873ZM72.8055 82.6813L72.2881 80.4402L57.9685 83.7462L57.0278 79.6715L76.8191 75.1023L78.2772 81.4181L72.8055 82.6813Z" fill="#ECE8E1"/>
<path d="M42.8207 67.0408L43.5733 70.3005L30.4179 73.3377L29.6653 70.0779L33.5072 69.191L33.2384 68.0268L38.7101 66.7635L38.9789 67.9277L42.8207 67.0408ZM43.8505 66.1899L49.3223 64.9267L52.9911 80.8179L47.5193 82.0812L43.8505 66.1899ZM46.6462 82.2828L32.6176 85.5215L31.8785 82.32L36.1569 81.3322L35.9419 80.4009C34.8493 80.4487 33.9164 80.2145 33.1432 79.6981C32.3894 79.1773 31.9028 78.4415 31.6833 77.4907C31.4234 76.3653 31.6301 75.3571 32.3031 74.4659C32.9762 73.5748 34.0016 72.9702 35.3792 72.6521L38.8136 71.8592C40.1912 71.5412 41.3778 71.6351 42.3734 72.141C43.369 72.6469 43.9968 73.4625 44.2566 74.5879C44.485 75.5775 44.3381 76.4902 43.8158 77.3261C43.3084 78.1381 42.5099 78.7517 41.4203 79.1667L41.6286 80.069L45.9071 79.0812L46.6462 82.2828ZM37.0251 75.7976C36.8699 75.8334 36.743 75.9036 36.6445 76.0081C36.5654 76.1081 36.5415 76.226 36.5729 76.3619C36.6042 76.4977 36.6774 76.5932 36.7923 76.6484C36.9267 76.6991 37.0714 76.7066 37.2267 76.6708L38.9147 76.281C39.07 76.2452 39.1871 76.1773 39.2662 76.0773C39.3647 75.9728 39.3983 75.8526 39.367 75.7168C39.3356 75.581 39.2527 75.4877 39.1184 75.437C39.0035 75.3817 38.8684 75.372 38.7132 75.4079L37.0251 75.7976ZM34.174 89.6073L33.4215 86.3476L53.2128 81.7784L54.4021 86.93L48.9304 88.1932L48.4936 86.3014L34.174 89.6073Z" fill="#ECE8E1"/>
</svg>
