<svg width="57" height="49" viewBox="0 0 57 49" fill="none" xmlns="http://www.w3.org/2000/svg">
<g clip-path="url(#clip0_1_2102)">
<path d="M28.4348 49.0002C25.6304 49.0002 22.8261 49.0002 20.0217 49.0002C19.337 49.0002 18.8478 48.7614 18.4239 48.1813C12.4239 40.3672 6.42391 32.5532 0.456522 24.705C0.130435 24.2955 0 23.8519 0 23.3401C0 20.8491 0 18.3923 0 15.9014C0 10.8512 0 5.80108 0 0.750938C0 0.614448 0 0.443835 0 0.307345C0.0978261 0.000241509 0.423913 -0.102126 0.652174 0.102609C0.717391 0.170854 0.782609 0.239099 0.815217 0.307345C8.93478 10.9195 17.0543 21.5316 25.1413 32.1437C29.1848 37.4327 33.2283 42.7217 37.2717 48.0107C37.3696 48.1131 37.4674 48.2154 37.5326 48.3519C37.6956 48.6249 37.5652 48.932 37.2717 48.9661C37.1739 48.9661 37.0761 48.9661 36.9456 48.9661C34.1087 48.9661 31.2717 48.9661 28.4022 48.9661L28.4348 49.0002Z" fill="white"/>
<path d="M56.9999 12.0793C56.9999 15.8328 56.9999 19.5863 56.9999 23.3739C56.9999 23.9198 56.8369 24.3634 56.5108 24.807C54.7826 27.0591 53.0869 29.3112 51.3586 31.5292C51.2934 31.6315 51.1956 31.7339 51.1304 31.8363C50.8369 32.1775 50.4782 32.3822 50.0217 32.4164C49.8912 32.4164 49.7934 32.4164 49.663 32.4164C44.0217 32.4164 38.413 32.4164 32.7717 32.4164C32.6412 32.4164 32.5434 32.4164 32.413 32.4164C32.0869 32.3822 31.9565 32.0751 32.1195 31.8022C32.1847 31.7339 32.2173 31.6657 32.2826 31.5633C37.4999 24.7388 42.7173 17.9143 47.9347 11.0898C50.6739 7.50689 53.413 3.92402 56.1521 0.341149C56.2173 0.238782 56.2826 0.136414 56.3804 0.0681687C56.6086 -0.102444 56.9021 0.0340462 56.9673 0.307027C56.9673 0.409394 56.9673 0.545885 56.9673 0.682375C56.9673 4.46998 56.9673 8.29171 56.9673 12.0793H56.9999Z" fill="white"/>
<path d="M56.9673 31.2903V32.3822C56.7391 32.1775 56.9021 31.9045 56.8043 31.5974C56.6739 31.9045 56.576 32.1433 56.4456 32.4505C56.2173 32.2116 56.2173 31.9045 55.9891 31.5974C55.9891 31.9045 55.9891 32.1775 55.9891 32.4846C55.826 32.2457 55.7934 31.9727 55.8586 31.3585C55.9891 31.2903 56.0869 31.3585 56.1195 31.495C56.1847 31.6998 56.2826 31.9045 56.413 32.2116C56.5108 31.9727 56.5434 31.8021 56.6413 31.6656C56.7065 31.5291 56.6739 31.2903 56.9673 31.3585V31.2903Z" fill="white"/>
<path d="M55.1737 31.4268C55.1737 31.4268 54.9455 31.3585 54.8477 31.3585C55.0759 31.2562 55.239 31.2562 55.6629 31.3244C55.5977 31.3244 55.5324 31.3927 55.4998 31.3927C55.4672 31.3927 55.402 31.3927 55.3368 31.3927C55.3368 31.7339 55.3368 32.041 55.3368 32.3822C55.3368 32.3822 55.2716 32.3822 55.239 32.3822C55.1411 32.2457 55.2064 32.0751 55.1737 31.9386C55.1737 31.768 55.1737 31.5974 55.1737 31.4268Z" fill="white"/>
</g>
<defs>
<clipPath id="clip0_1_2102">
<rect width="57" height="49" fill="white"/>
</clipPath>
</defs>
</svg>
