<svg width="3" height="12" viewBox="0 0 3 12" fill="none" xmlns="http://www.w3.org/2000/svg">
<path d="M2.47136 2.08246H0.535357C0.438557 2.08246 0.374023 2.01793 0.374023 1.92113V0.323931C0.374023 0.22713 0.438557 0.162598 0.535357 0.162598H2.47136C2.56816 0.162598 2.63269 0.22713 2.63269 0.323931V1.92113C2.63269 2.01793 2.56816 2.08246 2.47136 2.08246ZM2.47136 11.8666H0.535357C0.438557 11.8666 0.374023 11.8021 0.374023 11.7053V4.2194C0.374023 4.1226 0.438557 4.05806 0.535357 4.05806H2.47136C2.56816 4.05806 2.63269 4.1226 2.63269 4.2194V11.7053C2.63269 11.8021 2.56816 11.8666 2.47136 11.8666Z" fill="#ECE8E1"/>
</svg>
