<svg width="4" height="14" viewBox="0 0 4 14" fill="none" xmlns="http://www.w3.org/2000/svg">
<path d="M3.05948 2.7264H0.947484C0.841884 2.7264 0.771484 2.656 0.771484 2.5504V0.808004C0.771484 0.702403 0.841884 0.632004 0.947484 0.632004H3.05948C3.16508 0.632004 3.23548 0.702403 3.23548 0.808004V2.5504C3.23548 2.656 3.16508 2.7264 3.05948 2.7264ZM3.05948 13.4H0.947484C0.841884 13.4 0.771484 13.3296 0.771484 13.224V5.0576C0.771484 4.952 0.841884 4.8816 0.947484 4.8816H3.05948C3.16508 4.8816 3.23548 4.952 3.23548 5.0576V13.224C3.23548 13.3296 3.16508 13.4 3.05948 13.4Z" fill="#272727"/>
</svg>
