<svg width="24" height="36" viewBox="0 0 24 36" fill="none" xmlns="http://www.w3.org/2000/svg">
<path d="M-4.26528e-07 26.2422L24 23.07L24 27.8627L20.5029 28.242L20.5029 31.2763L24 31.621L24 36L-1.38659e-07 32.8278L-4.26528e-07 26.2422ZM5.82857 29.7591L16.32 30.828L16.32 28.6558L5.82857 29.7591Z" fill="#ECE8E1"/>
<path d="M-7.00479e-07 19.9749L-9.11482e-07 15.1477L19.7143 15.1477L19.7143 11.6653L24 11.6653L24 19.9749L-7.00479e-07 19.9749Z" fill="#ECE8E1"/>
<path d="M-1.21038e-06 8.30966L-1.42139e-06 3.48247L19.7143 3.48247L19.7143 -8.61739e-07L24 -1.04907e-06L24 8.30966L-1.21038e-06 8.30966Z" fill="#ECE8E1"/>
</svg>
