<svg width="24" height="51" viewBox="0 0 24 51" fill="none" xmlns="http://www.w3.org/2000/svg">
<path d="M15.6067 46.4002L23.7978 46.4002L23.7978 51L0.202247 51L0.202246 44.2646C0.202246 41.4171 1.66292 39.9934 4.58427 39.9934L11.2247 39.9934C14.1461 39.9934 15.6067 41.4171 15.6067 44.2646L15.6067 46.4002ZM5.08989 44.5932C4.52809 44.5932 4.24719 44.867 4.24719 45.4146L4.24719 46.4002L11.5618 46.4002L11.5618 45.4146C11.5618 44.867 11.2809 44.5932 10.7191 44.5932L5.08989 44.5932Z" fill="#ECE8E1"/>
<path d="M13.382 30.6288L13.382 26.0947L19.618 26.0947C22.5393 26.0947 24 27.5185 24 30.3659L24 33.1915C24 36.039 22.5393 37.4627 19.618 37.4627L4.38202 37.4627C1.46067 37.4627 -6.53966e-07 36.039 -7.78434e-07 33.1915L-8.99071e-07 30.4316C-1.02354e-06 27.5842 1.46067 26.1604 4.38202 26.1604L9.91011 26.1604L9.91011 30.6945L4.88764 30.6945C4.32584 30.6945 4.04494 30.9683 4.04494 31.5159L4.04494 32.0416C4.04494 32.5892 4.32584 32.863 4.88764 32.863L19.1124 32.863C19.6742 32.863 19.9551 32.5892 19.9551 32.0416L19.9551 31.4502C19.9551 30.9026 19.6742 30.6288 19.1124 30.6288L13.382 30.6288Z" fill="#ECE8E1"/>
<path d="M0.456925 2.24513L0.456925 7.87292L13.4786 7.87292L13.4786 2.24513L9.17902 2.24513L9.17902 -4.01228e-07L4.72584 -2.06573e-07L4.72584 2.24513L0.456925 2.24513ZM0.764042 23.2596L13.1715 23.2596L13.1715 9.90851L0.764041 9.90851L0.764041 15.5363L2.42247 15.5363L2.42247 17.6318L0.764041 17.6318L0.764042 23.2596ZM8.56479 17.6318L7.02921 17.6318L7.02921 15.5363L8.56479 15.5363L8.56479 17.6318ZM19.0682 2.24513C17.6964 2.24513 16.5703 2.69416 15.6899 3.59221C14.789 4.4703 14.3386 5.58788 14.3386 6.94493L14.3386 17.9012C14.3386 19.2582 14.789 20.3858 15.6899 21.2838C16.5703 22.1619 17.6964 22.601 19.0682 22.601C20.4399 22.601 21.5763 22.1619 22.4772 21.2838C23.3576 20.3858 23.7978 19.2582 23.7978 17.9012L23.7978 6.94493C23.7978 5.58788 23.3576 4.4703 22.4772 3.59221C21.5763 2.69416 20.4399 2.24513 19.0682 2.24513ZM18.4846 8.44169C18.4846 8.28204 18.5461 8.15232 18.6689 8.05253C18.7713 7.93279 18.9044 7.87292 19.0682 7.87292C19.232 7.87292 19.3753 7.93279 19.4981 8.05253C19.6005 8.15232 19.6517 8.28203 19.6517 8.44169L19.6517 16.4044C19.6517 16.5641 19.6005 16.7038 19.4981 16.8235C19.3753 16.9233 19.232 16.9732 19.0682 16.9732C18.9044 16.9732 18.7713 16.9233 18.6689 16.8235C18.5461 16.7038 18.4846 16.5641 18.4846 16.4044L18.4846 8.44169Z" fill="#ECE8E1"/>
</svg>
